<svg xmlns="http://www.w3.org/2000/svg" width="43" height="43" viewBox="0 0 43 43">
  <g id="Group_2481" data-name="Group 2481" transform="translate(-17730 -4548)">
    <circle id="Ellipse_22" data-name="Ellipse 22" cx="21.5" cy="21.5" r="21.5" transform="translate(17730 4548)" fill="#ededed"/>
    <path id="delete" d="M21.928,3.759a12.852,12.852,0,0,0-18.166,0A12.835,12.835,0,0,0,12.845,25.67,12.833,12.833,0,0,0,21.928,3.759ZM18.4,16.614a1.254,1.254,0,0,1-1.774,1.773l-3.782-3.779L9.063,18.386a1.254,1.254,0,1,1-1.774-1.773l3.782-3.779L7.289,9.056A1.254,1.254,0,0,1,9.063,7.284l3.782,3.779,3.782-3.779A1.254,1.254,0,0,1,18.4,9.056l-3.782,3.779Zm0,0" transform="translate(17739 4557)" fill="#ce5858"/>
  </g>
</svg>
