<svg xmlns="http://www.w3.org/2000/svg" xmlns:xlink="http://www.w3.org/1999/xlink" width="24" height="23" viewBox="0 0 24 23">
  <defs>
    <clipPath id="clip-Access_to_Configuration">
      <rect width="24" height="23"/>
    </clipPath>
  </defs>
  <g id="Access_to_Configuration" data-name="Access to Configuration" clip-path="url(#clip-Access_to_Configuration)">
    <g id="settings_1_" data-name="settings (1)" transform="matrix(0.695, 0.719, -0.719, 0.695, 11.568, -2.273)">
      <path id="Path_1404" data-name="Path 1404"  d="M19.681,7.514l-1.4-.28a8.008,8.008,0,0,0-.61-1.473l.792-1.188a.563.563,0,0,0-.07-.71L16.27,1.741a.563.563,0,0,0-.71-.07l-1.188.792a8.011,8.011,0,0,0-1.473-.61l-.28-1.4A.563.563,0,0,0,12.067,0h-3a.563.563,0,0,0-.552.452l-.28,1.4a8.014,8.014,0,0,0-1.473.61L5.573,1.671a.563.563,0,0,0-.71.07L2.741,3.863a.563.563,0,0,0-.07.71l.792,1.188a8.011,8.011,0,0,0-.61,1.473l-1.4.28A.563.563,0,0,0,1,8.066v3a.563.563,0,0,0,.452.552l1.4.28a8.009,8.009,0,0,0,.61,1.473L2.671,14.56a.563.563,0,0,0,.07.71l2.122,2.122a.563.563,0,0,0,.71.07l1.164-.776V13.154a5.252,5.252,0,1,1,7.659,0v3.533l1.164.776a.563.563,0,0,0,.71-.07l2.122-2.122a.563.563,0,0,0,.07-.71l-.792-1.188a8.012,8.012,0,0,0,.61-1.473l1.4-.28a.563.563,0,0,0,.452-.552v-3A.563.563,0,0,0,19.681,7.514Z" fill="#fff"/>
      <path id="Path_1405" data-name="Path 1405" d="M166.347,171.2a.462.462,0,0,0-.689.334l-.343,2.374h-1.5l-.343-2.374a.462.462,0,0,0-.689-.334A3.576,3.576,0,0,0,161,174.286a3.54,3.54,0,0,0,2,3.2l.059.029v5.849a.563.563,0,0,0,.563.563H165.5a.563.563,0,0,0,.563-.563v-5.849l.059-.029a3.54,3.54,0,0,0,2-3.2A3.576,3.576,0,0,0,166.347,171.2Z" transform="translate(-153.997 -164.719)" fill="#fff"/>
    </g>
  </g>
</svg>
