<svg xmlns="http://www.w3.org/2000/svg" xmlns:xlink="http://www.w3.org/1999/xlink" width="24" height="23" viewBox="0 0 24 23">
  <defs>
    <clipPath id="clip-Logout">
      <rect width="24" height="23"/>
    </clipPath>
  </defs>
  <g id="Logout" clip-path="url(#clip-Logout)">
    <g id="logout_1_" data-name="logout (1)" transform="translate(3 2.669)">
      <path id="Path_1408" data-name="Path 1408" d="M11.659,10.108a.777.777,0,0,0-.777.777v3.109a.778.778,0,0,1-.777.777H7.773V3.113A1.567,1.567,0,0,0,6.714,1.635l-.23-.077H10.1a.778.778,0,0,1,.777.777V4.668a.777.777,0,0,0,1.554,0V2.336A2.335,2.335,0,0,0,10.1,0H1.749a.611.611,0,0,0-.083.017C1.628.018,1.593,0,1.555,0A1.556,1.556,0,0,0,0,1.558V15.549a1.567,1.567,0,0,0,1.059,1.478l4.678,1.559a1.609,1.609,0,0,0,.482.072A1.556,1.556,0,0,0,7.773,17.1v-.777H10.1a2.335,2.335,0,0,0,2.332-2.332V10.886A.777.777,0,0,0,11.659,10.108Zm0,0" fill="#fff"/>
      <path id="Path_1409" data-name="Path 1409" d="M285.654,110l-3.109-3.109a.777.777,0,0,0-1.327.55v2.332h-3.109a.777.777,0,1,0,0,1.554h3.109v2.332a.777.777,0,0,0,1.327.55l3.109-3.109A.776.776,0,0,0,285.654,110Zm0,0" transform="translate(-267.228 -102.775)" fill="#fff"/>
    </g>
  </g>
</svg>
