<svg xmlns="http://www.w3.org/2000/svg" xmlns:xlink="http://www.w3.org/1999/xlink" width="22" height="17" viewBox="0 0 22 17">
  <defs>
    <clipPath id="clip-Mail_Id">
      <rect width="22" height="17"/>
    </clipPath>
  </defs>
  <g id="Mail_Id" clip-path="url(#clip-Mail_Id)">
    <g id="mail" transform="translate(2 -73.328)">
      <g id="Group_2269" data-name="Group 2269" transform="translate(12.382 76.904)">
        <g id="Group_2268" data-name="Group 2268" transform="translate(0 0)">
          <path id="Path_1393" data-name="Path 1393" d="M357.67,101.721l-5.459,5.424,5.459,5.424a1.563,1.563,0,0,0,.159-.678V102.4A1.563,1.563,0,0,0,357.67,101.721Z" transform="translate(-352.211 -101.721)" fill="#5b7989"/>
        </g>
      </g>
      <g id="Group_2271" data-name="Group 2271" transform="translate(0.904 76)">
        <g id="Group_2270" data-name="Group 2270">
          <path id="Path_1394" data-name="Path 1394" d="M41.235,76H26.4a1.564,1.564,0,0,0-.678.159L32.7,83.1a1.583,1.583,0,0,0,2.237,0l6.977-6.942A1.564,1.564,0,0,0,41.235,76Z" transform="translate(-25.721 -76)" fill="#5b7989"/>
        </g>
      </g>
      <g id="Group_2273" data-name="Group 2273" transform="translate(0 76.904)">
        <g id="Group_2272" data-name="Group 2272" transform="translate(0 0)">
          <path id="Path_1395" data-name="Path 1395" d="M.159,101.721A1.564,1.564,0,0,0,0,102.4v9.492a1.564,1.564,0,0,0,.159.678l5.459-5.424Z" transform="translate(0 -101.721)" fill="#5b7989"/>
        </g>
      </g>
      <g id="Group_2275" data-name="Group 2275" transform="translate(0.904 83.074)">
        <g id="Group_2274" data-name="Group 2274">
          <path id="Path_1396" data-name="Path 1396" d="M36.453,277.211l-.772.772a2.639,2.639,0,0,1-3.728,0l-.772-.772-5.459,5.424a1.564,1.564,0,0,0,.678.159H41.235a1.564,1.564,0,0,0,.678-.159Z" transform="translate(-25.721 -277.211)" fill="#5b7989"/>
        </g>
      </g>
    </g>
  </g>
</svg>
