<svg xmlns="http://www.w3.org/2000/svg" xmlns:xlink="http://www.w3.org/1999/xlink" width="22" height="17" viewBox="0 0 22 17">
  <defs>
    <clipPath id="clip-Password">
      <rect width="22" height="17"/>
    </clipPath>
  </defs>
  <g id="Password" clip-path="url(#clip-Password)">
    <g id="key" transform="translate(21 3.195) rotate(90)">
      <path id="Path_1397" data-name="Path 1397" d="M331,393.264h1.264V392H331Z" transform="translate(-322.15 -388.485)" fill="#5b7989"/>
      <path id="Path_1398" data-name="Path 1398" d="M124.793,9.8V0h3.793V1.177h2.528V2.354H129.85V3.531h-2.528V4.708h2.528V5.885h1.264V7.063h-2.528V9.8a5.328,5.328,0,0,1,3.793,4.991,5.7,5.7,0,0,1-11.378,0A5.328,5.328,0,0,1,124.793,9.8Zm1.9,7.934a3.059,3.059,0,0,0,3.161-2.943,3.169,3.169,0,0,0-6.321,0A3.059,3.059,0,0,0,126.689,17.735Z" transform="translate(-121 0)" fill="#5b7989"/>
    </g>
  </g>
</svg>
